<svg xmlns="http://www.w3.org/2000/svg" viewBox="0 0 18.42 29.41"><defs><style>.cls-1{fill:#5d5d5d;}</style></defs><title>dollarSign</title><g id="Layer_2" data-name="Layer 2"><g id="Layer_1-2" data-name="Layer 1"><path class="cls-1" d="M7.45,26.12A20.9,20.9,0,0,1,0,24.4V18.56a25.33,25.33,0,0,0,4.43,1.73,15.33,15.33,0,0,0,4.2.69,5,5,0,0,0,2.19-.36,1.25,1.25,0,0,0,.69-1.2,1.22,1.22,0,0,0-.5-1,7.75,7.75,0,0,0-1.67-.91Q8.21,17,6.22,16.29a14.28,14.28,0,0,1-3.6-1.85,6.47,6.47,0,0,1-2-2.3A7.19,7.19,0,0,1,0,9,5.72,5.72,0,0,1,1.86,4.43a9.88,9.88,0,0,1,5.59-2V0h3.64V2.37a20.63,20.63,0,0,1,7,1.72L16,9.11A16.4,16.4,0,0,0,9.42,7.45a4.11,4.11,0,0,0-2,.34,1.11,1.11,0,0,0-.57,1,1.24,1.24,0,0,0,.41,1,5.81,5.81,0,0,0,1.43.84q1,.47,2.83,1.08a13.68,13.68,0,0,1,5.27,3,5.92,5.92,0,0,1,1.6,4.28,6.44,6.44,0,0,1-1.87,4.8A9.12,9.12,0,0,1,11.09,26v3.39H7.45Z"/></g></g></svg>