<svg xmlns="http://www.w3.org/2000/svg" viewBox="0 0 55.36 62.5"><defs><style>.cls-1{fill:#fff;}</style></defs><title>stop</title><g id="Layer_2" data-name="Layer 2"><g id="Layer_1-2" data-name="Layer 1"><path class="cls-1" d="M53,13.89,30.07.65a4.72,4.72,0,0,0-4.77,0L2.38,13.89A4.84,4.84,0,0,0,0,18V44.49a4.68,4.68,0,0,0,2.38,4.11L25.3,61.84a5,5,0,0,0,2.38.66,4.32,4.32,0,0,0,2.38-.66L53,48.59a4.84,4.84,0,0,0,2.38-4.11V18A4.84,4.84,0,0,0,53,13.89ZM41.39,30.65,35,42.5c0,.07-2.52,5-7.42,5-.46,0-2-.07-2.38-.13A9.27,9.27,0,0,1,18.08,41l-4.17-13a2.77,2.77,0,0,1-.2-1.66,1.81,1.81,0,0,1,1-1,1.45,1.45,0,0,1,1.46-.07,1.57,1.57,0,0,1,.86.93c1,2.65,2.12,5,2.58,5,.07,0,.13-.13.2-.2a2.16,2.16,0,0,0-.07-1.32l-2-8.21c0-.13-.79-2.65.79-3.31a2.25,2.25,0,0,1,1.32,0,2.42,2.42,0,0,1,.93,1.13l2.58,8.68c.13.4.33,1.32.73,1.26.07,0,.13-.07.2-.13a2.77,2.77,0,0,0,.13-.93l-.79-10.2c-.13-.86-.07-2.52,1.59-2.85a2.06,2.06,0,0,1,1.59.2,2,2,0,0,1,.79,1.32s.79,9.07,1,10.79c.07,1,.2,1.32.33,1.32.53,0,.66-1,.66-1l1.06-8.21a2.89,2.89,0,0,1,.73-1.92,2,2,0,0,1,2.58.33,1.6,1.6,0,0,1,.26,1.32L33.11,30.91c0,.46.13,1.85.79,2a1.39,1.39,0,0,0,1.32-.6l2.72-4a2.06,2.06,0,0,1,2.78-.53A2.28,2.28,0,0,1,41.39,30.65Z"/></g></g></svg>